<?xml version="1.0" encoding="UTF-8"?>
<svg id="Camada_1" xmlns="http://www.w3.org/2000/svg" version="1.1" viewBox="0 0 286.08 64.56">
  <!-- Generator: Adobe Illustrator 29.5.0, SVG Export Plug-In . SVG Version: 2.1.0 Build 137)  -->
  <path d="M6.1,29.36l-3.84-3.49c-1.62-1.46-1.62-3.85,0-5.32L24.26.54c.24-.22.64-.22.88,0l3.96,3.6c1.55,1.41,1.55,3.69,0,5.1L6.97,29.36c-.24.22-.64.22-.88,0" fill="#005550"/>
  <path d="M28.96,27.69l-14.77,13.43c-.25.22-.25.58,0,.8l14.77,13.43c1.63,1.48,1.63,3.88,0,5.36l-3.82,3.47c-.24.23-.64.23-.88,0L2.28,44.2c-1.63-1.48-1.63-3.88,0-5.36l21.98-19.98c.24-.22.64-.22.88,0l3.82,3.47c1.63,1.48,1.63,3.88,0,5.36" fill="#d7a803"/>
  <path d="M66.36,35.37l3.84,3.49c1.62,1.46,1.62,3.85,0,5.32l-22,20.01c-.24.22-.64.22-.88,0l-3.97-3.6c-1.55-1.41-1.55-3.69,0-5.1l22.13-20.12c.24-.22.64-.22.88,0" fill="#005550"/>
  <path d="M43.5,37.04l14.77-13.43c.25-.22.25-.58,0-.8l-14.77-13.43c-1.63-1.48-1.63-3.88,0-5.36l3.82-3.47c.24-.22.64-.22.88,0l21.98,19.98c1.63,1.48,1.63,3.88,0,5.36l-21.98,19.98c-.24.22-.64.22-.88,0l-3.82-3.47c-1.63-1.48-1.63-3.88,0-5.36" fill="#d7a803"/>
  <path d="M109.07,28.39h-14.07c-.16,0-.29-.13-.29-.29v-9.17c0-1.43,1.17-2.58,2.61-2.58h13.54c2,0,3.79-1.22,4.51-3.06l1.55-3.99c.08-.18-.06-.39-.27-.39h-27.1c-3.58,0-6.47,2.87-6.47,6.41v40.21c0,.16.13.29.29.29h4.87c3.57,0,6.47-2.87,6.47-6.41v-11.06c0-1.4,1.14-2.53,2.55-2.53h6c2,0,3.79-1.22,4.51-3.06l1.56-3.99c.08-.19-.06-.39-.27-.39" fill="#005550"/>
  <path d="M145.3,28.39h-14.07c-.16,0-.29-.13-.29-.29v-9.17c0-1.43,1.17-2.58,2.61-2.58h13.54c2,0,3.79-1.22,4.51-3.06l1.55-3.99c.08-.18-.06-.39-.27-.39h-27.1c-3.58,0-6.47,2.87-6.47,6.41v40.21c0,.16.13.29.29.29h4.87c3.57,0,6.47-2.87,6.47-6.41v-11.06c0-1.4,1.14-2.53,2.55-2.53h6c2,0,3.79-1.22,4.51-3.06l1.56-3.99c.08-.19-.06-.39-.27-.39" fill="#005550"/>
  <path d="M284.92,29.19c.15,1.5.18,4.94,0,6.41-1.14,9.45-8.72,16.89-17.86,18.87-5.53,1.2-16.32,1.32-22.04.84-2.03-.17-3.44-1.07-3.68-3.21.12-13.54-.24-27.14.18-40.65.52-1.12,1.21-2.04,2.55-2.21,11.39.55,23.78-2.39,33.23,5.58,3.99,3.36,7.09,9.16,7.62,14.36h0ZM246.34,50.8h17.03c2.05,0,6.62-1.87,8.44-2.99,10.1-6.21,11.04-22.02,2.17-29.66-7.72-6.64-18.26-4.15-27.63-4.63v37.27h-.01Z" fill="#d7a803"/>
  <path d="M168.89,8.85c5.63-.46,12.37.66,16.92,4.11-1.89,4.19-5.56,1.52-8.63.77-5.47-1.35-15.32-1.25-17.36,5.3-2.98,9.58,11.21,10.53,17.21,12.41,4.81,1.51,10.15,4.06,10.72,9.73,1.61,16.21-20.69,16.93-30.88,11.08-.53-.3-3.31-2.2-3.38-2.56-.12-.6,1.02-1.52,1.54-1.73,2.59-1.03,4.56.94,6.94,1.82,5.57,2.04,17.93,3.04,20.49-3.91,1.77-4.81-1.16-7.81-5.36-9.5-7.03-2.84-21.46-3.06-22.45-13-.92-9.24,5.76-13.83,14.24-14.53h0Z" fill="#d7a803"/>
  <path d="M214.14,8.85c6.96-.59,14.6,1.4,19.33,6.69-3.73,3.58-7.16-.57-11-1.61-14.46-3.89-27.6,7.22-24.85,22.15,2.11,11.42,14.26,17.49,25.08,14.29,2.86-.85,5.58-3.59,8.48-2.89s2.14,1.63.39,3.18c-5.76,5.11-15.72,5.9-22.86,3.79-24.08-7.1-20.91-43.39,5.43-45.62v.02Z" fill="#d7a803"/>
</svg>